<svg width="84" height="84" viewBox="0 0 84 84" fill="none" xmlns="http://www.w3.org/2000/svg">
<g filter="url(#filter0_d_2040_6839)">
<rect x="24" y="14" width="36" height="36" rx="18" fill="#5B9EE1"/>
</g>
<path fill-rule="evenodd" clip-rule="evenodd" d="M42 40.3334C44.8125 40.3334 49.5 35.1651 49.5 31.0741C49.5 26.9831 46.1421 23.6667 42 23.6667C37.8579 23.6667 34.5 26.9831 34.5 31.0741C34.5 35.1651 39.1875 40.3334 42 40.3334ZM42 33.6667C43.3807 33.6667 44.5 32.5474 44.5 31.1667C44.5 29.786 43.3807 28.6667 42 28.6667C40.6193 28.6667 39.5 29.786 39.5 31.1667C39.5 32.5474 40.6193 33.6667 42 33.6667Z" fill="white"/>
<defs>
<filter id="filter0_d_2040_6839" x="0" y="0" width="84" height="84" filterUnits="userSpaceOnUse" color-interpolation-filters="sRGB">
<feFlood flood-opacity="0" result="BackgroundImageFix"/>
<feColorMatrix in="SourceAlpha" type="matrix" values="0 0 0 0 0 0 0 0 0 0 0 0 0 0 0 0 0 0 127 0" result="hardAlpha"/>
<feOffset dy="10"/>
<feGaussianBlur stdDeviation="12"/>
<feComposite in2="hardAlpha" operator="out"/>
<feColorMatrix type="matrix" values="0 0 0 0 0.356863 0 0 0 0 0.619608 0 0 0 0 0.882353 0 0 0 0.5 0"/>
<feBlend mode="normal" in2="BackgroundImageFix" result="effect1_dropShadow_2040_6839"/>
<feBlend mode="normal" in="SourceGraphic" in2="effect1_dropShadow_2040_6839" result="shape"/>
</filter>
</defs>
</svg>
