<svg width="27" height="18" viewBox="0 0 27 18" fill="none" xmlns="http://www.w3.org/2000/svg">
<path d="M24.6858 17.5C23.3518 17.5 22.5605 16.8173 22.5 15.834H23.7756C23.7756 16.1618 23.9572 16.5981 24.7463 16.6253C25.2933 16.6253 25.596 16.2975 25.596 16.0512C25.5355 15.6691 25.0491 15.6419 24.5647 15.5584C24.127 15.5067 23.6981 15.3972 23.2892 15.2327C23.0812 15.1163 22.9091 14.9454 22.7913 14.7382C22.6736 14.5311 22.6147 14.2956 22.6211 14.0574C22.6211 13.1827 23.3518 12.5 24.6253 12.5C25.8403 12.5 26.6294 13.1284 26.6879 14.0845H25.4749C25.4749 13.8403 25.4144 13.429 24.6858 13.429C24.1994 13.429 23.8967 13.5104 23.8361 13.8653C23.8361 14.358 24.8674 14.3309 25.6566 14.5209C26.3851 14.713 26.8716 15.1764 26.8716 15.834C26.8716 17.0365 25.9008 17.5 24.6858 17.5Z" fill="#1A2530"/>
<path d="M18.6086 15.2182C18.6086 15.9115 19.1598 16.4816 19.8758 16.4816C20.5368 16.4816 21.1411 15.9115 21.1411 15.2182C21.1297 14.8864 20.9927 14.5713 20.7578 14.3368C20.5229 14.1022 20.2076 13.9657 19.8758 13.9548C19.5408 13.9563 19.2199 14.0898 18.9827 14.3263C18.7455 14.5628 18.6111 14.8833 18.6086 15.2182ZM19.819 17.4988C19.5206 17.4991 19.2251 17.4401 18.9496 17.3253C18.6742 17.2104 18.4243 17.042 18.2144 16.8299C18.0046 16.6177 17.8389 16.3661 17.7271 16.0894C17.6153 15.8127 17.5595 15.5166 17.563 15.2182C17.563 13.9548 18.5537 12.9623 19.819 12.9623C20.3152 12.9623 20.7566 13.0873 21.1411 13.3582V13.0115H22.1885V17.3984H21.1411V17.1256C20.7465 17.3769 20.2867 17.5067 19.819 17.4988ZM13.5456 15.2182C13.5456 15.9115 14.1517 16.4816 14.8127 16.4816C15.5287 16.4816 16.0799 15.9115 16.0799 15.2182C16.0774 14.8833 15.943 14.5628 15.7058 14.3263C15.4686 14.0898 15.1477 13.9563 14.8127 13.9548C14.4808 13.9657 14.1653 14.1021 13.93 14.3366C13.6948 14.5712 13.5574 14.8863 13.5456 15.2182ZM16.0799 11.5H17.1804V17.3984H16.0799V17.1256C15.7088 17.3833 15.2643 17.5142 14.8127 17.4988C13.5456 17.4988 12.5 16.4816 12.5 15.2182C12.5 13.9548 13.5456 12.9623 14.8127 12.9623C15.3071 12.9623 15.7484 13.0873 16.0799 13.3582V11.5Z" fill="#1A2530"/>
<path d="M11.5 17.5L11.5 13.5L11.5 17.5Z" fill="#1A2530"/>
<path d="M11.5 17.5L11.5 13.5" stroke="#1A2530"/>
<path d="M6.61709 15.2188C6.61709 15.9122 7.2059 16.4824 7.97074 16.4824C8.67489 16.4824 9.3244 15.9122 9.3244 15.2188C9.3113 14.8869 9.16436 14.5721 8.91318 14.3376C8.662 14.1031 8.32523 13.9665 7.97074 13.9552C7.61292 13.9567 7.27015 14.0902 7.01675 14.3267C6.76335 14.5633 6.61975 14.8838 6.61709 15.2188ZM7.91207 17.4997C7.59313 17.5002 7.27725 17.4414 6.98279 17.3267C6.68832 17.2119 6.42112 17.0436 6.19673 16.8314C5.97234 16.6192 5.79522 16.3673 5.67564 16.0905C5.55606 15.8137 5.49641 15.5174 5.50017 15.2188C5.50017 13.9552 6.55841 12.9625 7.91207 12.9625C8.44018 12.9625 8.91162 13.0876 9.3244 13.3585V11.5H10.5V17.3993H9.3244V17.1265C8.90262 17.3773 8.41166 17.507 7.91207 17.4997Z" fill="#1A2530"/>
<path d="M1.61696 14.9864C1.61696 15.7505 2.26447 16.3789 2.96864 16.3789C3.73553 16.3789 4.32234 15.7505 4.32234 14.9864C4.32234 14.2495 3.73553 13.594 2.96864 13.594C2.61434 13.6064 2.27781 13.757 2.02694 14.0155C1.77608 14.2739 1.62956 14.6209 1.61696 14.9864ZM2.90996 17.5C1.61696 17.5 0.5 16.3789 0.5 14.9864C0.5 13.594 1.61696 12.5 2.90996 12.5C3.44011 12.5 3.91157 12.6378 4.32234 12.9364V12.5543H5.5V17.3893H4.32234V17.0887C3.97025 17.3622 3.44011 17.5 2.90996 17.5Z" fill="#1A2530"/>
<path d="M3.5 10.5L4 11.5H10L7.5 8L3.5 10.5Z" fill="#1A2530"/>
<path d="M11.5 11.5V12.5H12.5V11.5H16.5L12 4L8 6.5L11.5 11.5Z" fill="#1A2530"/>
<path d="M16 0L12.5 2.5L18 11.5H23.5L16 0Z" fill="#1A2530"/>
</svg>
