<svg width="30" height="20" viewBox="0 0 30 20" fill="none" xmlns="http://www.w3.org/2000/svg">
<path d="M17.7764 7.06825L11.4053 14.1365H16.8684L23.2395 7.06825L16.8684 0H11.4053L17.7764 7.06825Z" fill="#1A2530"/>
<path d="M9.4757 5.55639L6.59889 4.60694L8.4025 7.1087L6.62869 9.59539L9.4757 8.64594L11.2048 11.1477V8.05815L14.1114 7.1087L11.2048 6.14419V3.0697L9.4757 5.55639ZM2.3081 17.0997C2.56021 17.0997 2.80796 17.2219 2.97312 17.427L3.03399 17.5012L3.81198 16.9645L3.74243 16.8772C3.39907 16.4451 2.87315 16.1964 2.3081 16.1964C1.31277 16.1964 0.5 16.9776 0.5 17.9332C0.5 18.8888 1.31277 19.67 2.3081 19.67C2.86879 19.67 3.39039 19.4256 3.73374 19.0023L3.80329 18.9151L3.02526 18.3783L2.96443 18.4525C2.79492 18.6576 2.55585 18.7754 2.30378 18.7754C1.84305 18.7754 1.45187 18.3914 1.45187 17.9376C1.45623 17.4838 1.84741 17.0997 2.30814 17.0997H2.3081ZM10.6633 18.1268L9.26507 16.2772H8.37604V19.5488H9.23918V17.7167L10.5425 19.5488H11.5265V16.2772H10.6633V18.1268ZM13.9999 18.6066C13.9999 18.6328 13.9651 18.6371 13.9477 18.6371C13.9346 18.6371 13.9085 18.6328 13.8955 18.6022L13.1733 16.2772H12.1727L13.2386 19.5488H14.6611L15.727 16.2772H14.7264L13.9999 18.6066ZM22.0791 18.2096C22.4279 18.009 22.6284 17.6426 22.5979 17.2413C22.5587 16.696 22.0834 16.2772 21.5167 16.2772H19.8468V19.5488H20.7188V18.371H21.1112C21.1504 18.371 21.1853 18.3754 21.2115 18.4103L21.7739 19.5488H22.7549L22.0791 18.2096ZM21.4705 17.5293H20.695V17.1658H21.4705C21.5762 17.1658 21.6643 17.2385 21.6643 17.3476C21.6643 17.4566 21.5762 17.5293 21.4705 17.5293ZM26.915 19.5488H29.5V18.6764H27.7767V18.2838H29.3277V17.4986H27.7767V17.1496H29.5V16.2772H26.915V19.5488ZM24.9232 17.5208C24.4597 17.4165 24.3254 17.3471 24.3254 17.1951V17.1864C24.3254 17.0648 24.4164 16.9693 24.6416 16.9693C24.9405 16.9693 25.1831 17.0648 25.508 17.2602L26.0278 16.6437C25.6639 16.3528 25.2264 16.1964 24.6589 16.1964C23.8532 16.1964 23.3724 16.648 23.3724 17.2732V17.2819C23.3724 17.9723 23.9399 18.1764 24.6546 18.337C25.1094 18.4412 25.235 18.5194 25.235 18.6583V18.667C25.235 18.8103 25.0748 18.8971 24.8235 18.8971C24.4337 18.8971 24.0525 18.7582 23.7233 18.4933L23.1992 19.1142C23.6107 19.4833 24.2084 19.67 24.8019 19.67C25.6162 19.67 26.188 19.2618 26.188 18.5758V18.5671C26.188 17.9376 25.6942 17.6901 24.9232 17.5208ZM5.93245 16.1964C4.96309 16.1964 4.17549 16.9776 4.17549 17.9332C4.17549 18.8932 4.96309 19.67 5.93245 19.67C6.90181 19.67 7.68942 18.8888 7.68942 17.9332C7.68942 16.9732 6.90181 16.1964 5.93245 16.1964ZM5.93245 18.7814C5.47487 18.7814 5.10446 18.411 5.10446 17.9534C5.10446 17.4958 5.47487 17.1254 5.93245 17.1254C6.39003 17.1254 6.76045 17.4958 6.76045 17.9534C6.76045 18.411 6.39003 18.7814 5.93245 18.7814ZM16.3733 19.5488H18.9582V18.6764H17.2349V18.2838H18.7859V17.4986H17.2349V17.1496H18.9582V16.2772H16.3733V19.5488Z" fill="#1A2530"/>
</svg>
