<svg width="26" height="14" viewBox="0 0 26 14" fill="none" xmlns="http://www.w3.org/2000/svg">
<path d="M7.73373 7.33305L10.2164 0.352966H8.57532L7.43917 3.38206L7.69165 0.352966H5.96638L3.48367 7.33305H5.0827L6.30301 3.95276L6.09262 7.24525L7.73373 7.33305ZM9.6694 7.33305L12.1521 0.352966H10.5952L8.07037 7.33305H9.6694ZM14.1719 6.89405L14.0878 3.38206L16.4442 0.528566L14.1719 6.89405ZM25.6176 4.43566L17.6225 6.58675L17.8329 5.92825H16.1497L16.6967 4.26006H18.1274L18.5482 2.98696L17.1175 3.07476L17.6225 1.66996H19.0111L19.474 0.396866H14.9715L13.3303 2.41626L14.1299 0.352966H12.5308L10.0481 7.33305H11.6892L12.7412 4.34786V7.33305H14.8452L7.31293 9.39634C6.52743 9.63046 5.82608 9.73292 5.20894 9.70364C4.59176 9.67436 4.11487 9.49876 3.77823 9.17684C3.02079 8.59153 2.75426 7.69887 2.97871 6.49895C3.11896 5.70875 3.42753 4.94784 3.90447 4.21616C2.78232 5.44535 1.95474 6.48433 1.42176 7.33305C0.832642 8.24033 0.453924 9.13294 0.285605 10.0109C0.117285 10.8889 0.215458 11.606 0.580163 12.162C1.56201 13.8595 3.70808 13.9766 7.01837 12.5132L25.6176 4.43566Z" fill="#1A2530"/>
</svg>
