<?xml version="1.0" standalone="no"?>
<!DOCTYPE svg PUBLIC "-//W3C//DTD SVG 20010904//EN"
 "http://www.w3.org/TR/2001/REC-SVG-20010904/DTD/svg10.dtd">
<svg version="1.0" xmlns="http://www.w3.org/2000/svg"
 width="361.000000pt" height="257.000000pt" viewBox="0 0 361.000000 257.000000"
 preserveAspectRatio="xMidYMid meet">

<g transform="translate(0.000000,257.000000) scale(0.100000,-0.100000)"
fill="#000000" stroke="none">
<path d="M1962 2242 c-21 -14 -31 -67 -42 -226 -10 -134 -15 -176 -36 -276 -4
-20 -3 -22 5 -9 18 29 30 102 41 269 14 209 29 260 65 230 20 -17 19 -99 -1
-128 -9 -13 -14 -28 -11 -35 2 -7 100 -70 216 -142 116 -71 210 -132 208 -135
-1 -3 -20 -39 -40 -81 -30 -61 -36 -81 -29 -100 7 -18 56 -48 206 -123 207
-105 234 -123 198 -132 -11 -4 -23 -12 -26 -20 -3 -8 -17 -14 -31 -14 -13 0
-180 79 -370 175 -190 96 -354 175 -365 175 -11 0 -39 -24 -70 -62 -46 -58
-55 -64 -112 -78 -34 -8 -64 -21 -66 -29 -4 -11 0 -12 14 -6 11 5 38 10 60 13
l41 4 8 -66 c7 -66 6 -66 -26 -93 -18 -16 -60 -51 -93 -80 -33 -29 -63 -50
-67 -47 -4 2 -11 -1 -15 -7 -5 -8 -3 -9 6 -4 9 5 11 4 6 -3 -4 -7 -14 -12 -23
-12 -9 0 -13 -3 -10 -7 4 -3 -1 -12 -11 -19 -14 -10 -22 -9 -50 13 -18 14 -36
22 -39 19 -3 -3 -19 4 -34 15 -32 22 -50 19 -42 -9 5 -21 63 -45 86 -36 20 7
32 -13 17 -31 -7 -8 -9 -15 -4 -15 5 0 2 -5 -6 -10 -21 -14 -53 -13 -44 2 4 6
3 8 -4 4 -12 -7 -83 24 -77 34 2 3 -9 5 -24 2 -17 -2 -47 -22 -72 -48 -43 -44
-44 -45 -19 -51 13 -3 73 -30 132 -59 94 -46 111 -52 132 -42 22 9 34 5 98
-35 40 -25 81 -52 91 -59 16 -12 4 -19 -108 -68 -70 -30 -126 -59 -125 -65 1
-5 26 -20 56 -32 l53 -23 158 61 c256 99 665 249 678 249 12 0 45 -67 45 -92
0 -7 -39 -53 -87 -103 -49 -50 -111 -117 -140 -148 -29 -31 -60 -56 -70 -56
-54 -2 -78 -10 -95 -31 -10 -12 -17 -24 -15 -26 1 -2 119 27 261 63 244 63
259 66 284 51 44 -25 85 -30 170 -18 83 11 567 151 585 169 21 21 -3 23 -55 6
-29 -9 -64 -19 -78 -22 -13 -2 -29 -8 -35 -12 -5 -5 -23 -11 -40 -15 -45 -10
-167 -47 -190 -57 -19 -8 -42 -14 -107 -26 -16 -3 -28 -8 -28 -12 0 -4 -8 -7
-17 -8 -10 0 -47 -3 -82 -7 -45 -4 -69 -1 -83 8 -11 8 -16 16 -11 19 4 3 109
32 233 66 294 80 318 87 360 115 19 12 59 38 87 55 178 110 203 299 56 404
-32 23 -38 24 -48 11 -9 -13 -29 -15 -107 -13 -73 3 -94 1 -87 -8 12 -14 7
-17 -131 -73 -183 -74 -267 -90 -246 -49 4 8 -51 -46 -123 -120 -89 -92 -134
-131 -143 -125 -10 6 -10 4 1 -9 9 -12 10 -17 2 -17 -17 0 -31 43 -17 52 7 5
5 8 -6 8 -11 0 -18 8 -18 18 0 13 16 23 59 38 55 18 65 27 176 154 65 74 132
145 149 158 63 47 166 55 281 22 38 -11 98 -23 132 -26 52 -6 64 -4 69 10 6
17 -37 108 -107 226 -41 69 -52 80 -64 60 -3 -5 -1 -10 4 -10 6 0 11 -14 11
-31 0 -43 -23 -32 -31 15 -4 26 -2 42 8 52 12 12 5 29 -53 121 -71 112 -93
161 -94 203 0 22 -7 27 -66 44 -44 13 -68 16 -75 9 -6 -6 -17 -57 -25 -114 -8
-57 -18 -107 -22 -111 -11 -11 -282 -33 -313 -25 -21 5 -244 144 -449 278
l-45 30 3 59 c5 81 -17 116 -56 92z m969 -454 c0 -7 2 -24 4 -38 3 -21 -1 -26
-21 -28 -17 -1 -23 2 -18 10 4 7 3 8 -4 4 -7 -4 -12 -14 -12 -23 0 -12 7 -14
34 -10 28 4 34 3 29 -9 -3 -8 1 -14 10 -14 12 0 16 -10 15 -40 0 -22 -4 -37
-9 -34 -13 8 -49 -5 -49 -18 0 -6 11 -8 25 -6 32 6 31 -1 -1 -31 -31 -30 -74
-53 -74 -40 0 14 -27 11 -42 -5 -15 -14 -51 -14 -103 2 -29 8 -29 9 -7 16 12
4 22 12 22 18 0 10 -16 8 -54 -8 -16 -6 -18 -4 -13 10 6 16 2 17 -32 13 -30
-3 -38 -1 -34 9 5 12 -14 19 -39 15 -16 -2 -7 17 15 32 l22 16 -27 0 c-15 1
-30 -4 -33 -9 -10 -16 -25 -1 -18 17 5 14 1 15 -25 10 -18 -4 -32 -3 -32 2 0
5 -13 11 -30 13 -22 3 -30 1 -30 -10 0 -21 -6 -12 -13 18 -6 23 -3 26 20 25
14 0 28 6 31 14 3 10 -2 13 -22 9 -31 -6 -33 1 -7 29 11 12 17 24 13 27 -3 4
1 4 10 1 9 -4 14 -13 11 -21 -4 -10 3 -14 25 -14 17 0 32 -5 34 -11 3 -9 13
-9 41 0 20 7 43 10 50 8 7 -3 5 -6 -5 -6 -25 -1 -23 -21 2 -21 10 0 23 7 28
16 12 22 143 29 135 7 -5 -13 0 -12 47 4 11 4 8 8 -10 13 -23 7 -22 8 11 9 19
1 41 7 48 14 11 10 12 9 6 -2 -11 -19 14 -31 42 -18 23 10 31 27 13 27 -5 0
-10 5 -10 10 0 15 30 12 31 -2z m196 -170 c-2 -7 -12 -13 -21 -13 -10 0 -22
-8 -28 -18 -9 -18 -10 -18 -24 0 -12 17 -13 16 -14 -10 0 -36 -24 -31 -28 5
-3 22 2 26 40 35 61 15 80 15 75 1z m-1 -70 c-14 -9 -20 7 -11 30 6 15 8 15
15 -3 4 -12 3 -23 -4 -27z m-992 -12 c38 -19 82 -53 121 -94 34 -36 75 -78 91
-95 16 -16 58 -46 94 -67 36 -21 66 -44 68 -53 4 -21 -68 -62 -88 -49 -8 6
-13 16 -12 24 2 7 0 10 -4 5 -4 -4 -16 0 -26 9 -17 16 -17 15 -2 -30 9 -26 14
-49 11 -52 -5 -5 -141 54 -314 137 -72 34 -91 48 -87 61 3 10 -1 46 -8 80 -17
81 -17 81 7 84 32 5 57 -6 51 -23 -5 -11 -2 -13 10 -9 9 4 22 2 28 -3 6 -5 37
-18 69 -29 32 -12 78 -32 102 -46 l45 -25 -27 36 c-34 44 -124 123 -140 123
-7 0 -13 5 -13 10 0 6 -3 9 -7 9 -5 -1 -10 0 -13 1 -19 7 -53 11 -107 13 -35
1 -63 6 -63 11 0 4 35 7 78 5 60 -3 90 -10 136 -33z m1231 -326 c3 -6 -1 -13
-10 -16 -19 -8 -30 0 -20 15 8 14 22 14 30 1z m-175 -59 c0 -12 -20 -25 -27
-18 -7 7 6 27 18 27 5 0 9 -4 9 -9z m-195 -71 c-20 -23 -29 -21 -19 4 3 9 13
16 22 16 13 0 12 -3 -3 -20z m-165 -42 c0 -2 -16 -19 -36 -38 l-36 -35 22 38
c12 20 28 37 36 37 8 0 14 -1 14 -2z m-200 -68 c0 -5 -6 -13 -13 -17 -6 -4
-26 -25 -44 -45 -27 -31 -33 -35 -44 -22 -9 12 -9 13 2 9 8 -2 28 14 48 40 32
43 51 56 51 35z m0 -285 c14 -19 14 -19 -2 -6 -10 7 -18 18 -18 24 0 6 1 8 3
6 1 -2 9 -13 17 -24z"/>
<path d="M2821 1726 c-9 -11 -6 -15 13 -18 22 -4 36 7 36 28 0 10 -39 3 -49
-10z"/>
<path d="M2635 1711 c-9 -16 13 -23 35 -11 11 6 20 13 20 15 0 9 -49 5 -55 -4z"/>
<path d="M2463 1695 c-17 -14 -17 -14 2 -15 11 0 26 4 33 9 11 7 11 9 -1 14
-8 3 -23 -1 -34 -8z"/>
<path d="M2713 1703 c-7 -2 -13 -9 -13 -15 0 -14 43 -6 48 10 4 12 -12 15 -35
5z"/>
<path d="M2527 1684 c-4 -4 -4 -10 -2 -14 6 -10 45 0 45 11 0 10 -33 12 -43 3z"/>
<path d="M2765 1680 c-3 -6 5 -10 19 -10 14 0 28 5 31 10 3 6 -5 10 -19 10
-14 0 -28 -4 -31 -10z"/>
<path d="M2590 1665 c-10 -12 -10 -15 3 -15 25 0 47 11 41 21 -8 14 -30 11
-44 -6z"/>
<path d="M2842 1673 c-6 -2 -10 -8 -7 -13 6 -10 45 -1 45 11 0 10 -17 11 -38
2z"/>
<path d="M2910 1660 c-8 -5 -12 -12 -8 -15 9 -9 48 4 48 16 0 12 -21 11 -40
-1z"/>
<path d="M2655 1650 c-3 -5 3 -10 14 -10 11 0 23 5 26 10 3 6 -3 10 -14 10
-11 0 -23 -4 -26 -10z"/>
<path d="M2727 1643 c-10 -9 -9 -23 1 -23 5 0 17 7 28 15 19 14 19 14 -2 15
-11 0 -24 -3 -27 -7z"/>
<path d="M2785 1620 c-3 -5 3 -10 14 -10 11 0 23 5 26 10 3 6 -3 10 -14 10
-11 0 -23 -4 -26 -10z"/>
<path d="M2605 1609 c-4 -6 -5 -13 -2 -16 8 -7 47 7 47 18 0 13 -37 11 -45 -2z"/>
<path d="M2855 1610 c-3 -5 3 -10 14 -10 11 0 23 5 26 10 3 6 -3 10 -14 10
-11 0 -23 -4 -26 -10z"/>
<path d="M2674 1595 c-16 -12 -17 -14 -2 -15 25 0 49 11 42 21 -7 13 -17 11
-40 -6z"/>
<path d="M2735 1580 c-3 -5 3 -10 14 -10 11 0 23 5 26 10 3 6 -3 10 -14 10
-11 0 -23 -4 -26 -10z"/>
<path d="M2810 1570 c-8 -5 -12 -12 -9 -15 8 -8 39 5 39 16 0 11 -11 11 -30
-1z"/>
<path d="M2865 1550 c-3 -5 3 -10 14 -10 11 0 23 5 26 10 3 6 -3 10 -14 10
-11 0 -23 -4 -26 -10z"/>
<path d="M2745 1520 c-3 -6 5 -10 19 -10 14 0 28 5 31 10 3 6 -5 10 -19 10
-14 0 -28 -4 -31 -10z"/>
<path d="M2346 1257 c3 -10 9 -15 12 -12 3 3 0 11 -7 18 -10 9 -11 8 -5 -6z"/>
<path d="M1650 1443 c0 -11 62 -45 69 -38 3 4 -5 15 -19 25 -26 20 -50 26 -50
13z"/>
<path d="M1560 1351 c0 -16 81 -62 99 -56 12 3 21 0 25 -11 5 -13 9 -14 21 -4
13 11 12 15 -12 27 -15 7 -32 12 -39 9 -7 -3 -25 6 -41 20 -28 24 -53 31 -53
15z"/>
<path d="M1510 1306 c0 -16 30 -29 73 -30 39 -1 33 9 -16 28 -52 20 -57 20
-57 2z"/>
<path d="M2810 1235 c-35 -36 -30 -50 6 -16 11 10 34 26 50 34 l29 16 -26 1
c-16 0 -37 -13 -59 -35z"/>
<path d="M1475 1250 c-3 -5 -1 -10 4 -10 6 0 11 5 11 10 0 6 -2 10 -4 10 -3 0
-8 -4 -11 -10z"/>
<path d="M1384 697 c-28 -12 -59 -29 -69 -37 -21 -17 -89 -120 -83 -125 3 -4
329 123 337 131 5 5 -76 41 -109 48 -14 2 -47 -5 -76 -17z"/>
<path d="M1221 627 c-21 -11 -119 -137 -106 -137 3 0 20 6 38 14 23 9 44 32
70 75 38 64 38 69 -2 48z"/>
<path d="M1045 569 c-98 -33 -232 -73 -280 -83 -127 -26 -225 -37 -287 -32
-62 6 -114 29 -103 46 4 6 2 10 -3 10 -18 0 -22 -50 -8 -84 28 -67 91 -79 279
-51 119 18 194 35 329 72 l97 26 41 58 c22 31 40 60 40 63 0 9 -9 7 -105 -25z"/>
<path d="M1945 509 c-16 -5 -39 -7 -51 -4 -13 3 -28 -3 -39 -14 -17 -19 -16
-19 47 -5 34 8 77 19 93 24 27 7 28 8 5 8 -14 0 -38 -4 -55 -9z"/>
<path d="M1715 449 c-16 -5 -35 -7 -42 -5 -6 3 -17 -2 -24 -10 -11 -13 -9 -14
17 -8 54 13 109 32 94 32 -8 0 -28 -4 -45 -9z"/>
<path d="M1460 405 c-13 -14 -21 -27 -18 -30 11 -12 148 28 148 42 0 9 -7 12
-17 9 -55 -16 -76 -18 -82 -7 -5 7 -15 3 -31 -14z"/>
<path d="M1324 366 c-48 -10 -90 -33 -80 -43 10 -10 156 31 156 44 0 15 -5 15
-76 -1z"/>
<path d="M1145 308 l-50 -18 45 6 c25 3 52 12 60 20 18 18 8 16 -55 -8z"/>
<path d="M1060 295 c-10 -13 -9 -15 11 -14 13 0 18 3 11 6 -6 2 -10 9 -6 14 9
15 -2 10 -16 -6z"/>
</g>
</svg>
