<svg width="33" height="16" viewBox="0 0 33 16" fill="none" xmlns="http://www.w3.org/2000/svg">
<path d="M17.754 0.0547427C17.6486 0.0702982 17.5474 0.458111 17.3439 0.660224C17.1952 0.805801 17.0091 0.797004 16.9107 0.977232C16.8731 1.04428 16.8852 1.15939 16.843 1.26946C16.7596 1.49035 16.4674 1.50998 16.4674 1.75039C16.4663 2.01022 16.7109 2.05957 16.9232 2.24419C17.0889 2.39224 17.1047 2.49447 17.3051 2.56657C17.4766 2.6245 17.7312 2.43461 17.9606 2.50295C18.1486 2.55873 18.3287 2.59907 18.3714 2.79249C18.4089 2.97101 18.3687 3.24703 18.1404 3.21517C18.0635 3.20638 17.7295 3.09427 17.3201 3.13793C16.8254 3.19415 16.2611 3.35539 16.2058 3.90712C16.1754 4.21501 16.5568 4.57836 16.9249 4.50445C17.1792 4.45467 17.059 4.15429 17.1972 4.00871C17.379 3.82173 18.4089 4.66065 19.3657 4.66065C19.7687 4.66065 20.0684 4.55873 20.3661 4.24709C20.394 4.22306 20.4278 4.17221 20.4708 4.16877C20.5115 4.17221 20.5822 4.21222 20.6056 4.22917C21.376 4.8486 21.9589 6.09153 24.7919 6.10569C25.1905 6.10805 25.644 6.29847 26.0149 6.6364C26.3454 6.94193 26.5384 7.41771 26.7264 7.90003C27.0102 8.62373 27.5178 9.32791 28.2884 10.1112C28.3303 10.1532 28.9647 10.6463 29.0155 10.6829C29.0233 10.6886 29.0701 10.7997 29.0538 10.8617C29.0351 11.3318 28.9667 12.6976 29.9851 12.7596C30.234 12.7721 30.169 12.597 30.169 12.4769C30.1684 12.2387 30.125 12.0024 30.2502 11.7585C30.4217 11.4236 29.8866 11.2694 29.9021 10.545C29.9133 10.0048 29.4595 10.097 29.2295 9.68547C29.0968 9.4471 28.9789 9.32072 28.9873 9.02914C29.0392 7.38831 28.6382 6.30995 28.4384 6.04508C28.2823 5.84532 28.1533 5.76604 28.2957 5.67357C29.1459 5.11175 29.3386 4.58984 29.3386 4.58984C29.7908 3.52746 30.1971 2.55712 30.7577 2.12973C30.8703 2.04133 31.16 1.82527 31.3374 1.74063C31.8607 1.49399 32.1357 1.34434 32.2878 1.19672C32.5279 0.962642 32.7182 0.473988 32.4875 0.177899C32.2011 -0.187492 31.7055 0.102374 31.4872 0.232182C29.9245 1.15939 29.6942 2.79518 29.153 3.73472C28.7212 4.48514 28.019 5.03655 27.3913 5.08161C26.9212 5.11647 26.4135 5.02132 25.9086 4.79946C24.6802 4.26092 24.0082 3.56576 23.849 3.44271C23.5191 3.18803 20.9574 0.672775 18.8814 0.570109C18.8814 0.570109 18.6237 0.0539918 18.559 0.0458386C18.4073 0.0262066 18.2519 0.353728 18.1404 0.392027C18.0357 0.426571 17.8597 0.0373636 17.754 0.0546355V0.0547427ZM8.61556 15.0656C8.4202 15.0609 8.25424 14.9007 8.25424 14.7026L8.25489 8.22723H6.12058V15.3647C6.12058 15.7149 6.40401 16 6.75191 16H10.4817C10.8318 16 11.1119 15.7149 11.1119 15.3647V8.22712H8.97966L8.97795 14.7026C8.97795 14.9007 8.81198 15.0609 8.61556 15.0656ZM15.7605 8.22723H12.531C12.1482 8.22723 11.837 8.53802 11.837 8.92411V16H13.9734V9.50943C13.9737 9.46232 13.9832 9.41573 14.0015 9.37233C14.0198 9.32892 14.0465 9.28955 14.08 9.25645C14.1136 9.22336 14.1533 9.19719 14.1969 9.17945C14.2406 9.16171 14.2873 9.15273 14.3344 9.15305C14.5336 9.15305 14.6938 9.30688 14.698 9.50395V16H16.8254V9.50395C16.8281 9.30688 16.9879 9.15315 17.187 9.15315C17.3841 9.15315 17.5475 9.31053 17.5488 9.50932V16H19.6851V8.92411C19.6851 8.53802 19.3728 8.22712 18.9908 8.22712H15.7606L15.7605 8.22723ZM4.6972 14.0469H2.54101V16H0.408203V8.22723H4.71072C5.09585 8.22723 5.39655 8.54016 5.39655 8.92733V13.3462C5.39681 13.4382 5.3789 13.5294 5.34385 13.6144C5.30881 13.6995 5.25732 13.7768 5.19233 13.8419C5.12735 13.907 5.05015 13.9586 4.96517 13.9938C4.88018 14.029 4.78908 14.0471 4.6971 14.047L4.6972 14.0469ZM3.26493 9.52294C3.26556 9.4749 3.25671 9.42721 3.23888 9.3826C3.22105 9.33798 3.19458 9.29733 3.16101 9.26296C3.12743 9.2286 3.0874 9.2012 3.04321 9.18234C2.99902 9.16348 2.95155 9.15352 2.9035 9.15305H2.54112V13.0844H2.9035C3.09189 13.0844 3.26664 12.9347 3.26493 12.7193V9.52294Z" fill="#1A2530"/>
<path d="M23.2659 16V14.0486H22.5408V16H20.4088V8.9241C20.4088 8.538 20.72 8.22711 21.1028 8.22711H24.7041C25.0876 8.22711 25.3985 8.538 25.3985 8.9241V16H23.2659ZM23.2659 13.0858V9.50662C23.2608 9.30891 23.1016 9.1569 22.9025 9.1569C22.7053 9.1569 22.5428 9.31492 22.5408 9.51242V13.0858H23.2659Z" fill="#1A2530"/>
</svg>
