<svg width="28" height="16" viewBox="0 0 28 16" fill="none" xmlns="http://www.w3.org/2000/svg">
<path d="M20.6147 5.98278C22.8395 5.00395 24.2923 3.53402 24.3716 1.90338C24.3716 1.90338 23.7842 1.45083 21.8876 0.753055C20.2223 0.14025 18.9518 0 18.9518 0L18.9576 3.63325C18.9576 4.17616 18.7397 4.7303 18.3282 5.22086C17.0694 4.91697 15.6783 4.74639 14.219 4.74593H14.2181C12.758 4.74639 11.3652 4.91743 10.105 5.22186C9.69356 4.73122 9.4751 4.17661 9.4751 3.63325L9.48058 0C9.48058 0 8.21093 0.14025 6.54456 0.753055C4.64813 1.45083 4.06173 1.90338 4.06173 1.90338C4.14031 3.53448 5.5937 5.00487 7.82098 5.98369C5.59562 6.96252 4.14286 8.43235 4.06411 10.0625C4.06411 10.0625 4.65105 10.5155 6.54749 11.2129C8.2134 11.8257 9.48342 11.9659 9.48342 11.9659L9.47757 8.33267C9.47757 7.78976 9.69548 7.23516 10.1075 6.74506C11.3662 7.0495 12.757 7.21953 14.2161 7.21953H14.2166C15.6773 7.21953 17.0704 7.04895 18.3302 6.74351C18.7416 7.23415 18.9596 7.78976 18.9596 8.33267L18.9547 11.9659C18.9547 11.9659 20.2247 11.8257 21.8906 11.2129C23.7871 10.5155 24.3739 10.0625 24.3739 10.0625C24.2948 8.43144 22.8415 6.96105 20.6147 5.98269V5.98278ZM14.2171 6.80025H14.2156L14.1741 6.79933C12.8566 6.79933 11.7826 6.4768 10.9948 5.98369C11.7826 5.48966 12.8572 5.16668 14.1771 5.16668L14.2176 5.16613H14.2196L14.261 5.16668C15.579 5.16668 16.6526 5.48921 17.4403 5.98223C16.6526 6.4758 15.578 6.79924 14.2587 6.79924L14.2171 6.80025ZM1.14947 15.9912C0.511261 15.9912 0.500022 15.5045 0.500022 15.3169V14.4314C0.500022 14.3777 0.495637 14.3063 0.609481 14.3063H0.93932C1.0464 14.3063 1.03955 14.3826 1.03955 14.4315V15.3168C1.03955 15.3799 1.05125 15.549 1.28341 15.549H1.83655C2.06424 15.549 2.07749 15.38 2.07749 15.3169V14.4314C2.07749 14.3826 2.0711 14.3063 2.17763 14.3063H2.50994C2.63054 14.3063 2.61985 14.3826 2.61985 14.4315V15.3168C2.61985 15.5045 2.60861 15.9912 1.96803 15.9912H1.14947ZM4.206 15.8843C3.98069 15.5809 3.65916 15.1988 3.33133 14.7951V15.8731C3.33133 15.9201 3.34303 15.9914 3.2311 15.9914H2.92319C2.81182 15.9914 2.82506 15.9201 2.82506 15.8731V14.4316C2.82506 14.3827 2.82013 14.3064 2.92328 14.3064H3.5233C3.69288 14.3064 3.93427 14.648 4.09261 14.8733C4.21477 15.0453 4.44054 15.3038 4.59203 15.4978V14.4316C4.59203 14.3827 4.58518 14.3064 4.6971 14.3064H5.03133C5.13887 14.3064 5.13201 14.3827 5.13201 14.4316V15.9914H4.51629C4.38435 15.9914 4.32624 16.0002 4.206 15.8843ZM6.74265 15.5481C7.01237 15.5481 6.99282 15.2892 6.99282 15.1708C6.99282 14.7736 6.88098 14.7579 6.70254 14.7579H5.85474V15.5481H6.74265ZM5.3343 15.9918V14.3093H6.82132C6.91223 14.3093 7.52111 14.2986 7.52111 14.9383C7.52111 15.5925 7.59237 15.9918 6.83457 15.9918H6.03309L5.85912 15.6395V15.9918H5.3343ZM8.10358 14.3201H9.47327C9.58959 14.3201 9.57396 14.3959 9.57396 14.5367C9.57396 14.6676 9.5916 14.7413 9.47327 14.7413H8.39093C8.36206 14.7413 8.26438 14.7258 8.26438 14.8283C8.26438 14.931 8.24428 14.9716 8.35329 14.9716H9.31055C9.31055 14.9716 9.44888 15.2349 9.4645 15.2794C9.48698 15.3195 9.4846 15.3576 9.4 15.3576H8.40902L8.25506 15.0585V15.5002C8.25506 15.6029 8.34689 15.5828 8.37329 15.5828H9.49776C9.6096 15.5828 9.60037 15.6605 9.60037 15.7876C9.60037 15.9244 9.6096 15.9996 9.49776 15.9996H8.07425C7.95602 15.9996 7.72431 15.964 7.72431 15.5941V14.6656C7.72431 14.5698 7.77566 14.3202 8.10358 14.3202V14.3201ZM11.1371 14.7532H10.4701C10.3592 14.7532 10.363 14.7913 10.363 14.825V15.1261H11.0501C11.3829 15.1261 11.3829 15.0429 11.3829 14.956C11.3829 14.7821 11.3697 14.7532 11.1371 14.7532ZM9.94382 14.3091H11.443C11.6438 14.3091 11.9356 14.307 11.9356 14.849C11.9356 15.2037 11.8604 15.2214 11.6995 15.3308C11.9698 15.3777 11.9341 15.7232 11.9341 15.9021C11.9341 15.9934 11.9008 15.9915 11.8735 15.9915H11.4342C11.3423 15.9915 11.3648 15.8463 11.3648 15.7706C11.3648 15.5629 11.249 15.5722 11.204 15.5722H10.5571C10.495 15.4647 10.3743 15.2238 10.3743 15.2238V15.9221C10.3743 15.9827 10.3137 15.9915 10.2917 15.9915H9.85044C9.87438 15.9915 9.80503 15.9959 9.80503 15.9353V14.4542C9.80503 14.3492 9.87877 14.309 9.94373 14.309L9.94382 14.3091ZM14.3386 14.7861L14.062 15.2904L14.0864 15.3148H14.602L14.6289 15.2904C14.6108 15.2523 14.388 14.8287 14.3655 14.7836L14.3386 14.7861ZM14.517 14.3204C14.6264 14.3204 14.733 14.3693 14.8493 14.5945C14.9279 14.7548 15.4724 15.7385 15.5857 15.9443V16H15.0189L14.8557 15.7052H14.1666C14.1666 15.7052 14.0508 15.4399 14.0176 15.3666C13.9751 15.4355 13.7474 15.8685 13.6686 15.9999H13.1003V15.9643C13.2162 15.7459 14.0083 14.3204 14.0083 14.3204H14.517ZM17.0724 14.7532H16.4054C16.2939 14.7532 16.2983 14.7913 16.2983 14.825V15.1261H16.9854C17.3181 15.1261 17.3181 15.0429 17.3181 14.956C17.3181 14.7821 17.305 14.7532 17.0724 14.7532ZM15.8791 14.3091H17.3783C17.5791 14.3091 17.8714 14.307 17.8714 14.849C17.8714 15.2037 17.7961 15.2214 17.6347 15.3308C17.9045 15.3777 17.8689 15.7232 17.8689 15.9021C17.8689 15.9934 17.8356 15.9915 17.8088 15.9915H17.3695C17.2776 15.9915 17.3 15.8463 17.3 15.7706C17.3 15.5629 17.1843 15.5722 17.1392 15.5722H16.4923C16.4298 15.4647 16.3091 15.2238 16.3091 15.2238V15.9221C16.3091 15.9827 16.2495 15.9915 16.2269 15.9915H15.7853C15.8096 15.9915 15.7408 15.9959 15.7408 15.9353V14.4542C15.7408 14.3492 15.8146 14.309 15.879 14.309L15.8791 14.3091ZM19.1811 15.9912C19.0692 15.7816 18.759 15.2035 18.5493 14.8248V15.873C18.5493 15.9199 18.5557 15.9912 18.4496 15.9912H18.1457C18.0318 15.9912 18.0406 15.92 18.0406 15.873V14.4314C18.0406 14.3826 18.0342 14.3088 18.1457 14.3088H18.67C18.7481 14.3088 18.8591 14.2907 18.9847 14.5409C19.0785 14.7412 19.2774 15.1571 19.4132 15.3775C19.5535 15.1571 19.7567 14.7412 19.8506 14.5409C19.9733 14.2907 20.0822 14.3088 20.1692 14.3088H20.6911C20.7986 14.3088 20.7874 14.3826 20.7874 14.4314V15.873C20.7874 15.9199 20.8025 15.9912 20.6911 15.9912H20.3857C20.2743 15.9912 20.283 15.92 20.283 15.873V14.8248C20.0715 15.2035 19.7631 15.7816 19.6468 15.9912H19.1811ZM22.4603 15.5627C22.713 15.5627 22.7036 15.3023 22.7036 15.1278C22.7036 14.9715 22.7393 14.7261 22.4114 14.7261H21.8554C21.5299 14.7261 21.568 14.9715 21.568 15.1278C21.568 15.3023 21.5524 15.5627 21.8046 15.5627H22.4603ZM21.461 15.9957C20.9635 15.9957 20.9856 15.4621 20.9856 15.1171C20.9856 14.8 20.9499 14.3048 21.5724 14.3H22.6773C23.3018 14.3 23.2612 14.8019 23.2612 15.1171C23.2612 15.462 23.2862 15.9957 22.7814 15.9957H21.461ZM24.0931 15.9912C23.4544 15.9912 23.4436 15.5045 23.4436 15.3169V14.4314C23.4436 14.3777 23.4392 14.3063 23.5531 14.3063H23.8835C23.99 14.3063 23.9836 14.3826 23.9836 14.4315V15.3168C23.9836 15.3799 23.9949 15.549 24.2269 15.549H24.7802C25.0078 15.549 25.021 15.38 25.021 15.3169V14.4314C25.021 14.3826 25.0142 14.3063 25.1212 14.3063H25.4535C25.5741 14.3063 25.5635 14.3826 25.5635 14.4315V15.3168C25.5635 15.5045 25.5522 15.9912 24.9115 15.9912H24.0931ZM27.111 14.7532H26.444C26.3325 14.7532 26.3369 14.7913 26.3369 14.825V15.1261H27.024C27.3567 15.1261 27.3567 15.0429 27.3567 14.956C27.3567 14.7821 27.3436 14.7532 27.111 14.7532ZM25.9171 14.3091H27.4169C27.6177 14.3091 27.9104 14.307 27.9104 14.849C27.9104 15.2037 27.8342 15.2214 27.6734 15.3308C27.9437 15.3777 27.908 15.7232 27.908 15.9021C27.908 15.9934 27.8747 15.9915 27.8474 15.9915H27.4081C27.3167 15.9915 27.3386 15.8463 27.3386 15.7706C27.3386 15.5629 27.2229 15.5722 27.1784 15.5722H26.531C26.4688 15.4647 26.3482 15.2238 26.3482 15.2238V15.9221C26.3482 15.9827 26.2875 15.9915 26.2655 15.9915H25.8243C25.8482 15.9915 25.7794 15.9959 25.7794 15.9353V14.4542C25.7794 14.3492 25.8532 14.309 25.9171 14.309" fill="#1A2530"/>
</svg>
