<svg width="16" height="14" viewBox="0 0 16 14" fill="none" xmlns="http://www.w3.org/2000/svg">
<path fill-rule="evenodd" clip-rule="evenodd" d="M3 5C4.38071 5 5.5 3.88071 5.5 2.5C5.5 1.11929 4.38071 0 3 0C1.61929 0 0.5 1.11929 0.5 2.5C0.5 3.88071 1.61929 5 3 5ZM13 14C14.3807 14 15.5 12.8807 15.5 11.5C15.5 10.1193 14.3807 9 13 9C11.6193 9 10.5 10.1193 10.5 11.5C10.5 12.8807 11.6193 14 13 14ZM5.5 11.5C5.5 12.8807 4.38071 14 3 14C1.61929 14 0.5 12.8807 0.5 11.5C0.5 10.1193 1.61929 9 3 9C4.38071 9 5.5 10.1193 5.5 11.5ZM13 5C14.3807 5 15.5 3.88071 15.5 2.5C15.5 1.11929 14.3807 0 13 0C11.6193 0 10.5 1.11929 10.5 2.5C10.5 3.88071 11.6193 5 13 5Z" fill="#1A2530"/>
</svg>
