<svg width="16" height="16" viewBox="0 0 16 16" fill="none" xmlns="http://www.w3.org/2000/svg">
<path d="M4.66683 4V4.6C4.86744 4.6 5.05478 4.49974 5.16606 4.33282L4.66683 4ZM5.60434 2.59373L5.10511 2.26091V2.26091L5.60434 2.59373ZM10.396 2.59373L10.8952 2.26091L10.396 2.59373ZM11.3335 4L10.8343 4.33282C10.9455 4.49974 11.1329 4.6 11.3335 4.6V4ZM9.40016 9C9.40016 9.7732 8.77336 10.4 8.00016 10.4V11.6C9.4361 11.6 10.6002 10.4359 10.6002 9H9.40016ZM8.00016 10.4C7.22696 10.4 6.60016 9.7732 6.60016 9H5.40016C5.40016 10.4359 6.56422 11.6 8.00016 11.6V10.4ZM6.60016 9C6.60016 8.2268 7.22696 7.6 8.00016 7.6V6.4C6.56422 6.4 5.40016 7.56406 5.40016 9H6.60016ZM8.00016 7.6C8.77336 7.6 9.40016 8.2268 9.40016 9H10.6002C10.6002 7.56406 9.4361 6.4 8.00016 6.4V7.6ZM5.16606 4.33282L6.10357 2.92655L5.10511 2.26091L4.1676 3.66718L5.16606 4.33282ZM6.71374 2.6H9.28658V1.4H6.71374V2.6ZM9.89675 2.92655L10.8343 4.33282L11.8327 3.66718L10.8952 2.26091L9.89675 2.92655ZM9.28658 2.6C9.53178 2.6 9.76075 2.72254 9.89675 2.92655L10.8952 2.26091C10.5366 1.72306 9.933 1.4 9.28658 1.4V2.6ZM6.10357 2.92655C6.23958 2.72254 6.46855 2.6 6.71374 2.6V1.4C6.06733 1.4 5.46368 1.72306 5.10511 2.26091L6.10357 2.92655ZM14.0668 6.66667V11.3333H15.2668V6.66667H14.0668ZM12.0002 13.4H4.00016V14.6H12.0002V13.4ZM1.9335 11.3333V6.66667H0.733496V11.3333H1.9335ZM4.00016 13.4C2.85877 13.4 1.9335 12.4747 1.9335 11.3333H0.733496C0.733496 13.1375 2.19603 14.6 4.00016 14.6V13.4ZM14.0668 11.3333C14.0668 12.4747 13.1416 13.4 12.0002 13.4V14.6C13.8043 14.6 15.2668 13.1375 15.2668 11.3333H14.0668ZM12.0002 4.6C13.1416 4.6 14.0668 5.52528 14.0668 6.66667H15.2668C15.2668 4.86254 13.8043 3.4 12.0002 3.4V4.6ZM4.00016 3.4C2.19603 3.4 0.733496 4.86254 0.733496 6.66667H1.9335C1.9335 5.52528 2.85877 4.6 4.00016 4.6V3.4ZM4.00016 4.6H4.66683V3.4H4.00016V4.6ZM12.0002 3.4H11.3335V4.6H12.0002V3.4Z" fill="white"/>
<circle cx="8.00016" cy="3.99998" r="0.666667" fill="white"/>
</svg>
