<svg width="20" height="20" viewBox="0 0 20 20" fill="none" xmlns="http://www.w3.org/2000/svg">
<path d="M3 19L3 12M3 12C4.10457 12 5 11.1046 5 10C5 8.89543 4.10457 8 3 8M3 12C1.89543 12 1 11.1046 1 10C1 8.89543 1.89543 8 3 8M10 19V10M10 3V1M10 3C11.1046 3 12 3.89543 12 5C12 6.10457 11.1046 7 10 7C8.89543 7 8 6.10457 8 5C8 3.89543 8.89543 3 10 3ZM3 8L3 1M17 10V1M17 19V17M17 17C18.1046 17 19 16.1046 19 15C19 13.8954 18.1046 13 17 13C15.8954 13 15 13.8954 15 15C15 16.1046 15.8954 17 17 17Z" stroke="#1A2530" stroke-width="1.5" stroke-linecap="round"/>
</svg>
