<svg width="18" height="18" viewBox="0 0 18 18" fill="none" xmlns="http://www.w3.org/2000/svg">
<path d="M16.5 14.8333V13.4617C16.5 12.7802 16.0851 12.1674 15.4523 11.9143L13.7572 11.2362C12.9524 10.9143 12.0352 11.263 11.6475 12.0383L11.5 12.3333C11.5 12.3333 9.41667 11.9167 7.75 10.25C6.08333 8.58333 5.66667 6.5 5.66667 6.5L5.96168 6.35249C6.73698 5.96484 7.08571 5.04761 6.76379 4.2428L6.08574 2.54768C5.83263 1.91492 5.21979 1.5 4.53828 1.5H3.16667C2.24619 1.5 1.5 2.24619 1.5 3.16667C1.5 10.5305 7.46954 16.5 14.8333 16.5C15.7538 16.5 16.5 15.7538 16.5 14.8333Z" stroke="#1A2530" stroke-width="1.5" stroke-linejoin="round"/>
</svg>
